# xmcd CD database file
#
# Track frame offsets:
#	150
#	23043
#	43818
#	59080
#	73232
#	84916
#	106788
#	121265
#	140499
#	153385
#	170621
#	184717
#	209085
#	222004
#	237962
#	263715
#	287727
#	299282
#	324617
#
# Disc length: 4770 seconds
#
# Revision: 0
# Processed by: cddbd v1.5.1PL2 Copyright (c) Steve Scherf et al.
# Submitted via: CDex 1.51
#
DISCID=2312a013
DTITLE=Babyshambles - Down In Albion
DYEAR=2005
DGENRE=Rock
TTITLE0=La Belle Et La Bete
TTITLE1=Fuck Forever
TTITLE2=A'rebours
TTITLE3=32 Of December,The
TTITLE4=Pipedown
TTITLE5=Sticks and Stones
TTITLE6=Killamangiro
TTITLE7=8 Dead Boys
TTITLE8=In Love With A Feeling
TTITLE9=Pentonville
TTITLE10=What Katy Did Next
TTITLE11=Albion
TTITLE12=Back From The Dead
TTITLE13=Loyalty Song
TTITLE14=Up The Morning
TTITLE15=Merry Go Round
TTITLE16=Flophouse
TTITLE17=What Katy Did (Demo)
TTITLE18=F***Forever (Clean Version Of "Fuck Forever")
EXTD=YEAR: 2005
EXTT0=
EXTT1=
EXTT2=
EXTT3=
EXTT4=
EXTT5=
EXTT6=
EXTT7=
EXTT8=
EXTT9=
EXTT10=
EXTT11=
EXTT12=
EXTT13=
EXTT14=
EXTT15=
EXTT16=
EXTT17=
EXTT18=
PLAYORDER=
